<svg width="600" height="32" viewBox="0 0 600 32" fill="none" xmlns="http://www.w3.org/2000/svg">
<rect width="600" height="32" fill="#212121"/>
<path d="M491.955 0L497.913 0L510.823 0V6.21174L497.913 6.21174V18.6352H491.955V6.21174V0Z" fill="#303030"/>
<path d="M523.732 13.3645H517.774L504.864 13.3645V19.5762L517.774 19.5762V31.9997H523.732V19.5762V13.3645Z" fill="#303030"/>
<rect x="517.773" width="5.9583" height="6.21174" fill="#303030"/>
<rect x="504.865" y="25.7881" width="5.9583" height="6.21174" fill="#303030"/>
<rect x="491.955" y="25.7881" width="5.9583" height="6.21174" fill="#303030"/>
<path d="M453.488 31.9993L453.488 25.9993L453.488 12.9993L459.657 12.9993L459.657 25.9993L471.994 25.9993L471.994 31.9993L459.657 31.9993L453.488 31.9993Z" fill="#303030"/>
<path d="M466.76 0.000244141L466.76 6.00022L466.76 19.0002L472.928 19.0002L472.928 6.00022L485.266 6.00022L485.266 0.000243326L472.928 0.000243869L466.76 0.000244141Z" fill="#303030"/>
<rect x="453.488" y="6.00024" width="5.99998" height="6.16859" transform="rotate(-90 453.488 6.00024)" fill="#303030"/>
<rect x="479.096" y="19" width="5.99998" height="6.16859" transform="rotate(-90 479.096 19)" fill="#303030"/>
<rect x="479.096" y="32" width="5.99998" height="6.16859" transform="rotate(-90 479.096 32)" fill="#303030"/>
<path d="M529.754 31.9998L529.754 25.9998L529.754 12.9998L535.922 12.9998L535.922 25.9998L548.26 25.9998L548.26 31.9998L535.922 31.9998L529.754 31.9998Z" fill="#303030"/>
<path d="M543.025 0.000244141L543.025 6.00022L543.025 19.0002L549.194 19.0002L549.194 6.00022L561.531 6.00022L561.531 0.000243326L549.194 0.000243869L543.025 0.000244141Z" fill="#303030"/>
<rect x="529.754" y="6" width="5.99998" height="6.16859" transform="rotate(-90 529.754 6)" fill="#303030"/>
<rect x="555.361" y="19" width="5.99998" height="6.16859" transform="rotate(-90 555.361 19)" fill="#303030"/>
<rect x="555.361" y="32" width="5.99998" height="6.16859" transform="rotate(-90 555.361 32)" fill="#303030"/>
<path d="M568.221 31.9998L568.221 25.9998L568.221 12.9998L574.389 12.9998L574.389 25.9998L586.726 25.9998L586.726 31.9998L574.389 31.9998L568.221 31.9998Z" fill="#303030"/>
<path d="M581.494 0.000244141L581.494 6.00022L581.494 19.0002L587.663 19.0002L587.663 6.00022L600 6.00022L600 0.000243326L587.663 0.000243869L581.494 0.000244141Z" fill="#303030"/>
<rect x="568.221" y="6" width="5.99998" height="6.16859" transform="rotate(-90 568.221 6)" fill="#303030"/>
<rect x="593.83" y="19" width="5.99998" height="6.16859" transform="rotate(-90 593.83 19)" fill="#303030"/>
<rect x="593.83" y="32" width="5.99998" height="6.16859" transform="rotate(-90 593.83 32)" fill="#303030"/>
<path d="M338.467 0L344.425 0L357.335 0V6.21174L344.425 6.21174V18.6352H338.467V6.21174V0Z" fill="#303030"/>
<path d="M370.244 13.3645H364.286L351.376 13.3645V19.5762L364.286 19.5762V31.9997H370.244V19.5762V13.3645Z" fill="#303030"/>
<rect x="364.285" width="5.9583" height="6.21174" fill="#303030"/>
<rect x="351.377" y="25.7881" width="5.9583" height="6.21174" fill="#303030"/>
<rect x="338.467" y="25.7881" width="5.9583" height="6.21174" fill="#303030"/>
<path d="M300 31.9993L300 25.9993L300 12.9993L306.169 12.9993L306.169 25.9993L318.506 25.9993L318.506 31.9993L306.169 31.9993L300 31.9993Z" fill="#303030"/>
<path d="M313.271 0.000244141L313.271 6.00022L313.271 19.0002L319.44 19.0002L319.44 6.00022L331.777 6.00022L331.777 0.000243326L319.44 0.000243869L313.271 0.000244141Z" fill="#303030"/>
<rect x="300" y="6.00024" width="5.99998" height="6.16859" transform="rotate(-90 300 6.00024)" fill="#303030"/>
<rect x="325.607" y="19" width="5.99998" height="6.16859" transform="rotate(-90 325.607 19)" fill="#303030"/>
<rect x="325.607" y="32" width="5.99998" height="6.16859" transform="rotate(-90 325.607 32)" fill="#303030"/>
<path d="M376.266 31.9998L376.266 25.9998L376.266 12.9998L382.434 12.9998L382.434 25.9998L394.771 25.9998L394.771 31.9998L382.434 31.9998L376.266 31.9998Z" fill="#303030"/>
<path d="M389.537 0.000244141L389.537 6.00022L389.537 19.0002L395.706 19.0002L395.706 6.00022L408.043 6.00022L408.043 0.000243326L395.706 0.000243869L389.537 0.000244141Z" fill="#303030"/>
<rect x="376.266" y="6" width="5.99998" height="6.16859" transform="rotate(-90 376.266 6)" fill="#303030"/>
<rect x="401.873" y="19" width="5.99998" height="6.16859" transform="rotate(-90 401.873 19)" fill="#303030"/>
<rect x="401.873" y="32" width="5.99998" height="6.16859" transform="rotate(-90 401.873 32)" fill="#303030"/>
<path d="M414.732 31.9998L414.732 25.9998L414.732 12.9998L420.901 12.9998L420.901 25.9998L433.238 25.9998L433.238 31.9998L420.901 31.9998L414.732 31.9998Z" fill="#303030"/>
<path d="M428.006 0.000244141L428.006 6.00022L428.006 19.0002L434.174 19.0002L434.174 6.00022L446.512 6.00022L446.512 0.000243326L434.174 0.000243869L428.006 0.000244141Z" fill="#303030"/>
<rect x="414.732" y="6" width="5.99998" height="6.16859" transform="rotate(-90 414.732 6)" fill="#303030"/>
<rect x="440.34" y="19" width="5.99998" height="6.16859" transform="rotate(-90 440.34 19)" fill="#303030"/>
<rect x="440.34" y="32" width="5.99998" height="6.16859" transform="rotate(-90 440.34 32)" fill="#303030"/>
<path d="M191.957 0L197.915 0L210.825 0V6.21174L197.915 6.21174V18.6352H191.957V6.21174V0Z" fill="#303030"/>
<path d="M223.734 13.3645H217.776L204.866 13.3645V19.5762L217.776 19.5762V31.9997H223.734V19.5762V13.3645Z" fill="#303030"/>
<rect x="217.775" width="5.9583" height="6.21174" fill="#303030"/>
<rect x="204.865" y="25.7881" width="5.9583" height="6.21174" fill="#303030"/>
<rect x="191.957" y="25.7881" width="5.9583" height="6.21174" fill="#303030"/>
<path d="M153.488 31.9993L153.488 25.9993L153.488 12.9993L159.657 12.9993L159.657 25.9993L171.994 25.9993L171.994 31.9993L159.657 31.9993L153.488 31.9993Z" fill="#303030"/>
<path d="M166.76 0.000244141L166.76 6.00022L166.76 19.0002L172.928 19.0002L172.928 6.00022L185.266 6.00022L185.266 0.000243326L172.928 0.000243869L166.76 0.000244141Z" fill="#303030"/>
<rect x="153.488" y="6.00024" width="5.99998" height="6.16859" transform="rotate(-90 153.488 6.00024)" fill="#303030"/>
<rect x="179.098" y="19" width="5.99998" height="6.16859" transform="rotate(-90 179.098 19)" fill="#303030"/>
<rect x="179.098" y="32" width="5.99998" height="6.16859" transform="rotate(-90 179.098 32)" fill="#303030"/>
<path d="M229.754 31.9998L229.754 25.9998L229.754 12.9998L235.922 12.9998L235.922 25.9998L248.26 25.9998L248.26 31.9998L235.922 31.9998L229.754 31.9998Z" fill="#303030"/>
<path d="M243.025 0.000244141L243.025 6.00022L243.025 19.0002L249.194 19.0002L249.194 6.00022L261.531 6.00022L261.531 0.000243326L249.194 0.000243869L243.025 0.000244141Z" fill="#303030"/>
<rect x="229.754" y="6" width="5.99998" height="6.16859" transform="rotate(-90 229.754 6)" fill="#303030"/>
<rect x="255.363" y="19" width="5.99998" height="6.16859" transform="rotate(-90 255.363 19)" fill="#303030"/>
<rect x="255.363" y="32" width="5.99998" height="6.16859" transform="rotate(-90 255.363 32)" fill="#303030"/>
<path d="M268.223 31.9998L268.223 25.9998L268.223 12.9998L274.391 12.9998L274.391 25.9998L286.728 25.9998L286.728 31.9998L274.391 31.9998L268.223 31.9998Z" fill="#303030"/>
<path d="M281.496 0.000244141L281.496 6.00022L281.496 19.0002L287.665 19.0002L287.665 6.00022L300.002 6.00022L300.002 0.000243326L287.665 0.000243869L281.496 0.000244141Z" fill="#303030"/>
<rect x="268.223" y="6" width="5.99998" height="6.16859" transform="rotate(-90 268.223 6)" fill="#303030"/>
<rect x="293.832" y="19" width="5.99998" height="6.16859" transform="rotate(-90 293.832 19)" fill="#303030"/>
<rect x="293.832" y="32" width="5.99998" height="6.16859" transform="rotate(-90 293.832 32)" fill="#303030"/>
<path d="M38.4688 0L44.427 0L57.3367 0V6.21174L44.427 6.21174V18.6352H38.4688V6.21174V0Z" fill="#303030"/>
<path d="M70.2461 13.3645H64.2878L51.3782 13.3645V19.5762L64.2878 19.5762V31.9997H70.2461V19.5762V13.3645Z" fill="#303030"/>
<rect x="64.2871" width="5.9583" height="6.21174" fill="#303030"/>
<rect x="51.377" y="25.7881" width="5.9583" height="6.21174" fill="#303030"/>
<rect x="38.4688" y="25.7881" width="5.9583" height="6.21174" fill="#303030"/>
<path d="M0 31.9993L-2.62267e-07 25.9993L-8.30513e-07 12.9993L6.16859 12.9993L6.16859 25.9993L18.5058 25.9993L18.5058 31.9993L6.16859 31.9993L0 31.9993Z" fill="#303030"/>
<path d="M13.2715 0.000244141L13.2715 6.00022L13.2715 19.0002L19.4401 19.0002L19.4401 6.00022L31.7772 6.00022L31.7772 0.000243326L19.4401 0.000243869L13.2715 0.000244141Z" fill="#303030"/>
<rect y="6.00024" width="5.99998" height="6.16859" transform="rotate(-90 0 6.00024)" fill="#303030"/>
<rect x="25.6094" y="19" width="5.99998" height="6.16859" transform="rotate(-90 25.6094 19)" fill="#303030"/>
<rect x="25.6094" y="32" width="5.99998" height="6.16859" transform="rotate(-90 25.6094 32)" fill="#303030"/>
<path d="M76.2656 31.9998L76.2656 25.9998L76.2656 12.9998L82.4342 12.9998L82.4342 25.9998L94.7714 25.9998L94.7714 31.9998L82.4342 31.9998L76.2656 31.9998Z" fill="#303030"/>
<path d="M89.5371 0.000244141L89.5371 6.00022L89.5371 19.0002L95.7057 19.0002L95.7057 6.00022L108.043 6.00022L108.043 0.000243326L95.7057 0.000243869L89.5371 0.000244141Z" fill="#303030"/>
<rect x="76.2656" y="6" width="5.99998" height="6.16859" transform="rotate(-90 76.2656 6)" fill="#303030"/>
<rect x="101.875" y="19" width="5.99998" height="6.16859" transform="rotate(-90 101.875 19)" fill="#303030"/>
<rect x="101.875" y="32" width="5.99998" height="6.16859" transform="rotate(-90 101.875 32)" fill="#303030"/>
<path d="M114.734 31.9998L114.734 25.9998L114.734 12.9998L120.903 12.9998L120.903 25.9998L133.24 25.9998L133.24 31.9998L120.903 31.9998L114.734 31.9998Z" fill="#303030"/>
<path d="M128.008 0.000244141L128.008 6.00022L128.008 19.0002L134.176 19.0002L134.176 6.00022L146.514 6.00022L146.514 0.000243326L134.176 0.000243869L128.008 0.000244141Z" fill="#303030"/>
<rect x="114.734" y="6" width="5.99998" height="6.16859" transform="rotate(-90 114.734 6)" fill="#303030"/>
<rect x="140.344" y="19" width="5.99998" height="6.16859" transform="rotate(-90 140.344 19)" fill="#303030"/>
<rect x="140.344" y="32" width="5.99998" height="6.16859" transform="rotate(-90 140.344 32)" fill="#303030"/>
</svg>
