<svg width="153" height="32" viewBox="0 0 153 32" fill="none" xmlns="http://www.w3.org/2000/svg">
<rect width="153" height="32" fill="#212121"/>
<path d="M38.4688 0L44.427 0L57.3367 0V6.21174L44.427 6.21174V18.6352H38.4688V6.21174V0Z" fill="#303030"/>
<path d="M70.2461 13.3645H64.2878L51.3782 13.3645V19.5762L64.2878 19.5762V31.9997H70.2461V19.5762V13.3645Z" fill="#303030"/>
<rect x="64.2871" width="5.9583" height="6.21174" fill="#303030"/>
<rect x="51.377" y="25.7881" width="5.9583" height="6.21174" fill="#303030"/>
<rect x="38.4688" y="25.7881" width="5.9583" height="6.21174" fill="#303030"/>
<path d="M0 31.9993L-2.62267e-07 25.9993L-8.30513e-07 12.9993L6.16859 12.9993L6.16859 25.9993L18.5058 25.9993L18.5058 31.9993L6.16859 31.9993L0 31.9993Z" fill="#303030"/>
<path d="M13.2715 0.000244141L13.2715 6.00022L13.2715 19.0002L19.4401 19.0002L19.4401 6.00022L31.7772 6.00022L31.7772 0.000243326L19.4401 0.000243869L13.2715 0.000244141Z" fill="#303030"/>
<rect y="6.00024" width="5.99998" height="6.16859" transform="rotate(-90 0 6.00024)" fill="#303030"/>
<rect x="25.6094" y="19" width="5.99998" height="6.16859" transform="rotate(-90 25.6094 19)" fill="#303030"/>
<rect x="25.6094" y="32" width="5.99998" height="6.16859" transform="rotate(-90 25.6094 32)" fill="#303030"/>
<path d="M76.2656 31.9998L76.2656 25.9998L76.2656 12.9998L82.4342 12.9998L82.4342 25.9998L94.7714 25.9998L94.7714 31.9998L82.4342 31.9998L76.2656 31.9998Z" fill="#303030"/>
<path d="M89.5371 0.000244141L89.5371 6.00022L89.5371 19.0002L95.7057 19.0002L95.7057 6.00022L108.043 6.00022L108.043 0.000243326L95.7057 0.000243869L89.5371 0.000244141Z" fill="#303030"/>
<rect x="76.2656" y="6" width="5.99998" height="6.16859" transform="rotate(-90 76.2656 6)" fill="#303030"/>
<rect x="101.875" y="19" width="5.99998" height="6.16859" transform="rotate(-90 101.875 19)" fill="#303030"/>
<rect x="101.875" y="32" width="5.99998" height="6.16859" transform="rotate(-90 101.875 32)" fill="#303030"/>
<path d="M114.734 31.9998L114.734 25.9998L114.734 12.9998L120.903 12.9998L120.903 25.9998L133.24 25.9998L133.24 31.9998L120.903 31.9998L114.734 31.9998Z" fill="#303030"/>
<path d="M128.008 0.000244141L128.008 6.00022L128.008 19.0002L134.176 19.0002L134.176 6.00022L146.514 6.00022L146.514 0.000243326L134.176 0.000243869L128.008 0.000244141Z" fill="#303030"/>
<rect x="114.734" y="6" width="5.99998" height="6.16859" transform="rotate(-90 114.734 6)" fill="#303030"/>
<rect x="140.344" y="19" width="5.99998" height="6.16859" transform="rotate(-90 140.344 19)" fill="#303030"/>
<rect x="140.344" y="32" width="5.99998" height="6.16859" transform="rotate(-90 140.344 32)" fill="#303030"/>
</svg>
